<svg xmlns="http://www.w3.org/2000/svg" xmlns:xlink="http://www.w3.org/1999/xlink" style="margin:auto;display:block;z-index:1;position:relative;shape-rendering:auto" width="2048" height="1035" preserveAspectRatio="xMidYMid" viewBox="0 0 2048 1035"><g transform="translate(1024,517.5) scale(1,1) translate(-1024,-517.5)"><style type="text/css">@keyframes ld-fall{0%{transform:translate(0,0) rotate3d(1,1,1,0deg)}16.6%{transform:translate(0,174.5px) rotate3d(1,1,1,180deg)}33.3%{transform:translate(0,349px) rotate3d(1,1,1,360deg)}50%{transform:translate(0,523.5px) rotate3d(1,1,1,540deg)}66.6%{transform:translate(0,698px) rotate3d(1,1,1,720deg)}83.3%{transform:translate(0,872.5px) rotate3d(1,1,1,900deg)}}.ld.ld-fall,.ld.ld-fall2{animation:ld-fall 12s linear infinite}.ld.ld-fall2{animation-fill-mode:forwards}</style><g><g><g class="ld ld-fall2" style="animation-delay:-2.135357654227514s;animation-duration:4s" transform="translate(0 25.829404805448423) translate(146.61962549698546 0)"><rect width="9.379" height="6.399" x="-4.689" y="-3.199" style="transform:scale(3.143967467647202)" fill="#eb7532"/></g></g><g><g class="ld ld-fall2" style="animation-delay:-.05316659226821141s;animation-duration:4s" transform="translate(0 25.829404805448423) translate(509.42395690791545 0)"><rect width="9.232" height="6.017" x="-4.616" y="-3.009" style="transform:scale(2.582234624634094)" fill="#e6261f"/></g></g><g><g class="ld ld-fall2" style="animation-delay:-.27082259560840694s;animation-duration:4s" transform="translate(0 25.829404805448423) translate(152.8852635739845 0)"><rect width="6.046" height="7.177" x="-3.023" y="-3.588" style="transform:scale(2.8630837503546855)" fill="#f7d038"/></g></g><g><g class="ld ld-fall2" style="animation-delay:-1.2722771573986695s;animation-duration:2s" transform="translate(0 25.829404805448423) translate(535.4207095340007 0)"><rect width="7.902" height="11.854" x="-3.951" y="-5.927" style="transform:scale(3.314317763641098)" fill="#34bbe6"/></g></g><g><g class="ld ld-fall2" style="animation-delay:-3.638213469609674s;animation-duration:4s" transform="translate(0 25.829404805448423) translate(1268.3878312080628 0)"><rect width="7.253" height="6.663" x="-3.626" y="-3.332" style="transform:scale(2.6081346617419077)" fill="#a3e048"/></g></g><g><g class="ld ld-fall2" style="animation-delay:-1.3236895475423474s;animation-duration:2s" transform="translate(0 25.829404805448423) translate(462.76983794870785 0)"><rect width="9.844" height="6.629" x="-4.922" y="-3.315" style="transform:scale(2.923341526739444)" fill="#f7d038"/></g></g><g><g class="ld ld-fall2" style="animation-delay:-3.315127794254072s;animation-duration:4s" transform="translate(0 25.829404805448423) translate(758.237480955338 0)"><rect width="9.208" height="11.957" x="-4.604" y="-5.978" style="transform:scale(3.0952636550826087)" fill="#a3e048"/></g></g><g><g class="ld ld-fall2" style="animation-delay:-.6490592853179051s;animation-duration:2s" transform="translate(0 25.829404805448423) translate(294.63074250968475 0)"><rect width="11.259" height="10.508" x="-5.629" y="-5.254" style="transform:scale(3.1211416567963757)" fill="#f7d038"/></g></g><g><g class="ld ld-fall2" style="animation-delay:-1.0247576558539047s;animation-duration:2s" transform="translate(0 25.829404805448423) translate(918.6732030645494 0)"><rect width="8.38" height="6.994" x="-4.19" y="-3.497" style="transform:scale(2.512301637303815)" fill="#4355db"/></g></g><g><g class="ld ld-fall2" style="animation-delay:-.2951793701472467s;animation-duration:2s" transform="translate(0 25.829404805448423) translate(1795.0909738953815 0)"><rect width="7.826" height="7.632" x="-3.913" y="-3.816" style="transform:scale(1.5066735824515995)" fill="#d23be7"/></g></g><g><g class="ld ld-fall2" style="animation-delay:-1.4983728977299249s;animation-duration:4s" transform="translate(0 25.829404805448423) translate(22.409389385617033 0)"><rect width="7.986" height="10.728" x="-3.993" y="-5.364" style="transform:scale(2.314435233542997)" fill="#d23be7"/></g></g><g><g class="ld ld-fall2" style="animation-delay:-1.0669337729291302s;animation-duration:2s" transform="translate(0 25.829404805448423) translate(1918.1602377221402 0)"><rect width="11.235" height="11.384" x="-5.617" y="-5.692" style="transform:scale(1.6370653028626103)" fill="#4355db"/></g></g><g><g class="ld ld-fall2" style="animation-delay:-.33973948898191786s;animation-duration:4s" transform="translate(0 25.829404805448423) translate(880.7383286825502 0)"><rect width="7.802" height="10.416" x="-3.901" y="-5.208" style="transform:scale(3.1212072959687696)" fill="#f7d038"/></g></g><g><g class="ld ld-fall2" style="animation-delay:-3.9393304992038s;animation-duration:4s" transform="translate(0 25.829404805448423) translate(833.2695555506189 0)"><rect width="6.613" height="7.61" x="-3.306" y="-3.805" style="transform:scale(3.252484260827691)" fill="#eb7532"/></g></g><g><g class="ld ld-fall2" style="animation-delay:-.2450004983799028s;animation-duration:4s" transform="translate(0 25.829404805448423) translate(925.0512026982606 0)"><rect width="11.801" height="11.38" x="-5.901" y="-5.69" style="transform:scale(2.814551765372953)" fill="#e6261f"/></g></g><g><g class="ld ld-fall2" style="animation-delay:-1.345051509173663s;animation-duration:4s" transform="translate(0 25.829404805448423) translate(795.3760870380183 0)"><rect width="6.77" height="7.588" x="-3.385" y="-3.794" style="transform:scale(3.3361283615924746)" fill="#34bbe6"/></g></g><g><g class="ld ld-fall2" style="animation-delay:-3.276151584726537s;animation-duration:4s" transform="translate(0 25.829404805448423) translate(1173.1341318198038 0)"><rect width="9.216" height="9.487" x="-4.608" y="-4.744" style="transform:scale(3.3308126848474067)" fill="#e6261f"/></g></g><g><g class="ld ld-fall2" style="animation-delay:-2.5431763572186457s;animation-duration:4s" transform="translate(0 25.829404805448423) translate(1122.6741552928106 0)"><rect width="7.952" height="6.772" x="-3.976" y="-3.386" style="transform:scale(2.1702266097387586)" fill="#34bbe6"/></g></g><g><g class="ld ld-fall2" style="animation-delay:-2.372289722247981s;animation-duration:4s" transform="translate(0 25.829404805448423) translate(1182.6981455848772 0)"><rect width="10.77" height="9.847" x="-5.385" y="-4.923" style="transform:scale(2.346075299956254)" fill="#eb7532"/></g></g><g><g class="ld ld-fall2" style="animation-delay:-1.3896492612397449s;animation-duration:4s" transform="translate(0 25.829404805448423) translate(298.0694670577018 0)"><rect width="7.318" height="7.497" x="-3.659" y="-3.748" style="transform:scale(1.6632785974350925)" fill="#e6261f"/></g></g><g><g class="ld ld-fall2" style="animation-delay:-3.2105238622354104s;animation-duration:4s" transform="translate(0 25.829404805448423) translate(309.94200234870414 0)"><rect width="10.575" height="7.162" x="-5.287" y="-3.581" style="transform:scale(1.9692832964278848)" fill="#d23be7"/></g></g><g><g class="ld ld-fall2" style="animation-delay:-1.5437821896486303s;animation-duration:4s" transform="translate(0 25.829404805448423) translate(8.109661918373604 0)"><rect width="8.455" height="8.729" x="-4.228" y="-4.365" style="transform:scale(1.9170191677630615)" fill="#f7d038"/></g></g><g><g class="ld ld-fall2" style="animation-delay:-.4928120683485684s;animation-duration:4s" transform="translate(0 25.829404805448423) translate(1373.3998238608315 0)"><rect width="11.252" height="11.144" x="-5.626" y="-5.572" style="transform:scale(2.137995580959514)" fill="#a3e048"/></g></g><g><g class="ld ld-fall2" style="animation-delay:-3.182584389782175s;animation-duration:4s" transform="translate(0 25.829404805448423) translate(1382.7227084156011 0)"><rect width="10.701" height="7.974" x="-5.35" y="-3.987" style="transform:scale(1.9288696444267925)" fill="#f7d038"/></g></g><g><g class="ld ld-fall2" style="animation-delay:-1.9031700446722808s;animation-duration:2s" transform="translate(0 25.829404805448423) translate(1638.9573441680413 0)"><rect width="7.145" height="8.154" x="-3.572" y="-4.077" style="transform:scale(2.297949326289252)" fill="#a3e048"/></g></g><g><g class="ld ld-fall2" style="animation-delay:-1.2634096424838082s;animation-duration:2s" transform="translate(0 25.829404805448423) translate(275.0413398446908 0)"><rect width="11.448" height="6.452" x="-5.724" y="-3.226" style="transform:scale(3.1325772217174244)" fill="#e6261f"/></g></g><g><g class="ld ld-fall2" style="animation-delay:-2.7567842923229975s;animation-duration:4s" transform="translate(0 25.829404805448423) translate(1253.8059404524306 0)"><rect width="10.541" height="8.484" x="-5.27" y="-4.242" style="transform:scale(3.235044589584195)" fill="#4355db"/></g></g><g><g class="ld ld-fall2" style="animation-delay:-.995335797857873s;animation-duration:4s" transform="translate(0 25.829404805448423) translate(500.8074457572038 0)"><rect width="10.399" height="7.053" x="-5.2" y="-3.527" style="transform:scale(3.356342668520803)" fill="#a3e048"/></g></g><g><g class="ld ld-fall2" style="animation-delay:-1.8869535832538782s;animation-duration:2s" transform="translate(0 25.829404805448423) translate(644.4013422319481 0)"><rect width="6.765" height="11.4" x="-3.382" y="-5.7" style="transform:scale(2.3088904928885476)" fill="#f7d038"/></g></g><g><g class="ld ld-fall2" style="animation-delay:-.25142973357308884s;animation-duration:2s" transform="translate(0 25.829404805448423) translate(251.86195300879126 0)"><rect width="8.434" height="8.212" x="-4.217" y="-4.106" style="transform:scale(2.5967327858501754)" fill="#34bbe6"/></g></g></g><g><g><g class="ld ld-fall" style="animation-delay:-2.135357654227514s;animation-duration:4s" transform="translate(0 -1021.1705951945515) translate(146.61962549698546 0)"><rect width="9.379" height="6.399" x="-4.689" y="-3.199" style="transform:scale(3.143967467647202)" fill="#eb7532"/></g></g><g><g class="ld ld-fall" style="animation-delay:-.05316659226821141s;animation-duration:4s" transform="translate(0 -1021.1705951945515) translate(509.42395690791545 0)"><rect width="9.232" height="6.017" x="-4.616" y="-3.009" style="transform:scale(2.582234624634094)" fill="#e6261f"/></g></g><g><g class="ld ld-fall" style="animation-delay:-.27082259560840694s;animation-duration:4s" transform="translate(0 -1021.1705951945515) translate(152.8852635739845 0)"><rect width="6.046" height="7.177" x="-3.023" y="-3.588" style="transform:scale(2.8630837503546855)" fill="#f7d038"/></g></g><g><g class="ld ld-fall" style="animation-delay:-1.2722771573986695s;animation-duration:2s" transform="translate(0 -1021.1705951945515) translate(535.4207095340007 0)"><rect width="7.902" height="11.854" x="-3.951" y="-5.927" style="transform:scale(3.314317763641098)" fill="#34bbe6"/></g></g><g><g class="ld ld-fall" style="animation-delay:-3.638213469609674s;animation-duration:4s" transform="translate(0 -1021.1705951945515) translate(1268.3878312080628 0)"><rect width="7.253" height="6.663" x="-3.626" y="-3.332" style="transform:scale(2.6081346617419077)" fill="#a3e048"/></g></g><g><g class="ld ld-fall" style="animation-delay:-1.3236895475423474s;animation-duration:2s" transform="translate(0 -1021.1705951945515) translate(462.76983794870785 0)"><rect width="9.844" height="6.629" x="-4.922" y="-3.315" style="transform:scale(2.923341526739444)" fill="#f7d038"/></g></g><g><g class="ld ld-fall" style="animation-delay:-3.315127794254072s;animation-duration:4s" transform="translate(0 -1021.1705951945515) translate(758.237480955338 0)"><rect width="9.208" height="11.957" x="-4.604" y="-5.978" style="transform:scale(3.0952636550826087)" fill="#a3e048"/></g></g><g><g class="ld ld-fall" style="animation-delay:-.6490592853179051s;animation-duration:2s" transform="translate(0 -1021.1705951945515) translate(294.63074250968475 0)"><rect width="11.259" height="10.508" x="-5.629" y="-5.254" style="transform:scale(3.1211416567963757)" fill="#f7d038"/></g></g><g><g class="ld ld-fall" style="animation-delay:-1.0247576558539047s;animation-duration:2s" transform="translate(0 -1021.1705951945515) translate(918.6732030645494 0)"><rect width="8.38" height="6.994" x="-4.19" y="-3.497" style="transform:scale(2.512301637303815)" fill="#4355db"/></g></g><g><g class="ld ld-fall" style="animation-delay:-.2951793701472467s;animation-duration:2s" transform="translate(0 -1021.1705951945515) translate(1795.0909738953815 0)"><rect width="7.826" height="7.632" x="-3.913" y="-3.816" style="transform:scale(1.5066735824515995)" fill="#d23be7"/></g></g><g><g class="ld ld-fall" style="animation-delay:-1.4983728977299249s;animation-duration:4s" transform="translate(0 -1021.1705951945515) translate(22.409389385617033 0)"><rect width="7.986" height="10.728" x="-3.993" y="-5.364" style="transform:scale(2.314435233542997)" fill="#d23be7"/></g></g><g><g class="ld ld-fall" style="animation-delay:-1.0669337729291302s;animation-duration:2s" transform="translate(0 -1021.1705951945515) translate(1918.1602377221402 0)"><rect width="11.235" height="11.384" x="-5.617" y="-5.692" style="transform:scale(1.6370653028626103)" fill="#4355db"/></g></g><g><g class="ld ld-fall" style="animation-delay:-.33973948898191786s;animation-duration:4s" transform="translate(0 -1021.1705951945515) translate(880.7383286825502 0)"><rect width="7.802" height="10.416" x="-3.901" y="-5.208" style="transform:scale(3.1212072959687696)" fill="#f7d038"/></g></g><g><g class="ld ld-fall" style="animation-delay:-3.9393304992038s;animation-duration:4s" transform="translate(0 -1021.1705951945515) translate(833.2695555506189 0)"><rect width="6.613" height="7.61" x="-3.306" y="-3.805" style="transform:scale(3.252484260827691)" fill="#eb7532"/></g></g><g><g class="ld ld-fall" style="animation-delay:-.2450004983799028s;animation-duration:4s" transform="translate(0 -1021.1705951945515) translate(925.0512026982606 0)"><rect width="11.801" height="11.38" x="-5.901" y="-5.69" style="transform:scale(2.814551765372953)" fill="#e6261f"/></g></g><g><g class="ld ld-fall" style="animation-delay:-1.345051509173663s;animation-duration:4s" transform="translate(0 -1021.1705951945515) translate(795.3760870380183 0)"><rect width="6.77" height="7.588" x="-3.385" y="-3.794" style="transform:scale(3.3361283615924746)" fill="#34bbe6"/></g></g><g><g class="ld ld-fall" style="animation-delay:-3.276151584726537s;animation-duration:4s" transform="translate(0 -1021.1705951945515) translate(1173.1341318198038 0)"><rect width="9.216" height="9.487" x="-4.608" y="-4.744" style="transform:scale(3.3308126848474067)" fill="#e6261f"/></g></g><g><g class="ld ld-fall" style="animation-delay:-2.5431763572186457s;animation-duration:4s" transform="translate(0 -1021.1705951945515) translate(1122.6741552928106 0)"><rect width="7.952" height="6.772" x="-3.976" y="-3.386" style="transform:scale(2.1702266097387586)" fill="#34bbe6"/></g></g><g><g class="ld ld-fall" style="animation-delay:-2.372289722247981s;animation-duration:4s" transform="translate(0 -1021.1705951945515) translate(1182.6981455848772 0)"><rect width="10.77" height="9.847" x="-5.385" y="-4.923" style="transform:scale(2.346075299956254)" fill="#eb7532"/></g></g><g><g class="ld ld-fall" style="animation-delay:-1.3896492612397449s;animation-duration:4s" transform="translate(0 -1021.1705951945515) translate(298.0694670577018 0)"><rect width="7.318" height="7.497" x="-3.659" y="-3.748" style="transform:scale(1.6632785974350925)" fill="#e6261f"/></g></g><g><g class="ld ld-fall" style="animation-delay:-3.2105238622354104s;animation-duration:4s" transform="translate(0 -1021.1705951945515) translate(309.94200234870414 0)"><rect width="10.575" height="7.162" x="-5.287" y="-3.581" style="transform:scale(1.9692832964278848)" fill="#d23be7"/></g></g><g><g class="ld ld-fall" style="animation-delay:-1.5437821896486303s;animation-duration:4s" transform="translate(0 -1021.1705951945515) translate(8.109661918373604 0)"><rect width="8.455" height="8.729" x="-4.228" y="-4.365" style="transform:scale(1.9170191677630615)" fill="#f7d038"/></g></g><g><g class="ld ld-fall" style="animation-delay:-.4928120683485684s;animation-duration:4s" transform="translate(0 -1021.1705951945515) translate(1373.3998238608315 0)"><rect width="11.252" height="11.144" x="-5.626" y="-5.572" style="transform:scale(2.137995580959514)" fill="#a3e048"/></g></g><g><g class="ld ld-fall" style="animation-delay:-3.182584389782175s;animation-duration:4s" transform="translate(0 -1021.1705951945515) translate(1382.7227084156011 0)"><rect width="10.701" height="7.974" x="-5.35" y="-3.987" style="transform:scale(1.9288696444267925)" fill="#f7d038"/></g></g><g><g class="ld ld-fall" style="animation-delay:-1.9031700446722808s;animation-duration:2s" transform="translate(0 -1021.1705951945515) translate(1638.9573441680413 0)"><rect width="7.145" height="8.154" x="-3.572" y="-4.077" style="transform:scale(2.297949326289252)" fill="#a3e048"/></g></g><g><g class="ld ld-fall" style="animation-delay:-1.2634096424838082s;animation-duration:2s" transform="translate(0 -1021.1705951945515) translate(275.0413398446908 0)"><rect width="11.448" height="6.452" x="-5.724" y="-3.226" style="transform:scale(3.1325772217174244)" fill="#e6261f"/></g></g><g><g class="ld ld-fall" style="animation-delay:-2.7567842923229975s;animation-duration:4s" transform="translate(0 -1021.1705951945515) translate(1253.8059404524306 0)"><rect width="10.541" height="8.484" x="-5.27" y="-4.242" style="transform:scale(3.235044589584195)" fill="#4355db"/></g></g><g><g class="ld ld-fall" style="animation-delay:-.995335797857873s;animation-duration:4s" transform="translate(0 -1021.1705951945515) translate(500.8074457572038 0)"><rect width="10.399" height="7.053" x="-5.2" y="-3.527" style="transform:scale(3.356342668520803)" fill="#a3e048"/></g></g><g><g class="ld ld-fall" style="animation-delay:-1.8869535832538782s;animation-duration:2s" transform="translate(0 -1021.1705951945515) translate(644.4013422319481 0)"><rect width="6.765" height="11.4" x="-3.382" y="-5.7" style="transform:scale(2.3088904928885476)" fill="#f7d038"/></g></g><g><g class="ld ld-fall" style="animation-delay:-.25142973357308884s;animation-duration:2s" transform="translate(0 -1021.1705951945515) translate(251.86195300879126 0)"><rect width="8.434" height="8.212" x="-4.217" y="-4.106" style="transform:scale(2.5967327858501754)" fill="#34bbe6"/></g></g></g></g></svg>